# xmcd
#
# Track frame offsets: 
#        150
#        54911
#        75154
#        93424
#        123465
#        156748
#        178402
#        209175
#        236721
#        268796
#        300347
#
# Disc length: 4219 seconds
#
# Revision: 0
# Processed by: cddbd v1.5.1PL0 Copyright (c) Steve Scherf et al.
# Submitted via: ExactAudioCopy v0.95a3
#
DISCID=9910790b
DTITLE=Sheila E. - Not Bad 4 A Girl [CD2]
DYEAR=1900
DGENRE=
TTITLE0=Girls and Boys -- Holly Rock (Live)
TTITLE1=Holly Rock (Saturday Night Live)
TTITLE2=A Love Bizarre (Saturday Night Live)
TTITLE3=Girl Power
TTITLE4=Erotic City (12 Inch Mix)
TTITLE5=Heaven Must Be Near (Heavenly Club Mix)
TTITLE6=Heaven Must Be Near (Heavenly Dub)
TTITLE7=Heaven Must Be Near (House Mix)
TTITLE8=Heaven Must Be Near (Heavenly Mix)
TTITLE9=Heaven Must Be Near (Quiet Storm Mix)
TTITLE10=7 Corners
EXTD=
EXTT0=
EXTT1=
EXTT2=
EXTT3=
EXTT4=
EXTT5=
EXTT6=
EXTT7=
EXTT8=
EXTT9=
EXTT10=
PLAYORDER=
